<?xml version="1.0" encoding="iso-8859-1"?>
<!-- Generator: Adobe Illustrator 18.1.1, SVG Export Plug-In . SVG Version: 6.00 Build 0)  -->
<svg version="1.1" id="Capa_1" xmlns="http://www.w3.org/2000/svg" xmlns:xlink="http://www.w3.org/1999/xlink" x="0px" y="0px"
	 viewBox="0 0 612.002 612.002" style="enable-background:new 0 0 612.002 612.002;" xml:space="preserve">
<g>
	<g>
		<path d="M509.508,369.504c0,0-118.949-119.592-120.443-120.921c16.588-16.761,26.925-39.704,27.229-65.021
			c12.212-2.896,21.136-13.783,21.136-26.837c0-7.317-2.923-14.196-7.86-19.265c10.252-7.311,16.518-19.143,16.518-32.225
			c0-14.651-8.24-28.125-20.945-34.956c0.398-2.269,0.599-4.566,0.599-6.871c0-21.442-17.107-38.952-38.387-39.627
			C381.114,9.402,367.036,0,351.036,0c-11.108,0-21.429,4.532-28.836,12.41C314.787,4.532,304.469,0,293.373,0
			c-16,0-30.078,9.402-36.32,23.782c-21.281,0.675-38.387,18.184-38.387,39.627c0,2.322,0.198,4.619,0.593,6.873
			c-12.71,6.833-20.953,20.306-20.953,34.953c0,13.069,6.27,24.902,16.529,32.223c-4.936,5.071-7.857,11.951-7.857,19.266
			c0,13.066,8.922,23.953,21.131,26.84c0.306,25.314,10.641,48.253,27.227,65.014c-4.745,4.241-104.714,105.838-104.714,105.838
			l-16.423-16.423l7.405-7.405l-8.123-8.123l-41.572,41.572l8.123,8.123l8.061-8.061l18.914,18.916
			c-4.511,12.769-1.671,27.577,8.526,37.773c6.849,6.849,15.955,10.621,25.643,10.621c3.524,0,6.97-0.505,10.259-1.47
			c-0.692,3.025-1.07,6.17-1.07,9.403c0,23.268,18.777,42.2,42.044,42.2c3.074,0,6.019-0.332,8.891-0.978v43.851h28.717v87.587
			h143.585v-87.587h28.717V385.194l35.751,35.596c6.849,6.849,16.033,10.621,25.719,10.621c9.688,0,18.833-3.772,25.682-10.621
			C523.608,406.648,523.647,383.643,509.508,369.504z M322.526,48.822c45.565,0,82.561,37.069,82.561,82.636v23.693
			c-5.743-10.956-16.258-18.418-29.052-18.418H268.367c-12.793,0-24.094,7.462-28.401,18.418v-23.693
			C239.965,85.892,276.961,48.822,322.526,48.822z M396.166,168.26c0,18.718-15.28,34.018-34.058,34.027
			c-18.805-0.007-34.104-15.298-34.106-33.964h-11.487c0,18.666-15.312,34.07-34.13,34.07c-18.83,0-34.15-15.267-34.15-34.076
			c0-11.099,9.031-20.096,20.131-20.096h107.668C387.135,148.221,396.166,157.161,396.166,168.26z M282.385,213.766
			c17.138,0,32.098-9.902,39.894-23.93c7.8,13.929,22.721,22.997,39.81,22.997h0.032c19.529,0,36.221-12.12,42.676-29.386
			c-0.814,42.972-34.575,78.205-77.032,81.077h-11.128c-42.441-2.872-76.193-37.688-77.03-80.64
			C246.073,201.223,262.808,213.766,282.385,213.766z M310.237,275.75l-29.113,24.488l-4.809-35.688
			C286.592,270.316,298.053,274.197,310.237,275.75z M368.426,264.357l-4.863,35.892l-29.172-24.527
			C346.625,274.132,358.125,270.191,368.426,264.357z M416.574,171.476v-29.494c0,0.022-0.029,0.036,0.019,0.057
			c5.756,2.606,9.538,8.37,9.538,14.683C426.133,163.335,422.317,168.989,416.574,171.476z M414.257,63.407
			c0,2.846-0.431,5.682-1.279,8.426l-1.594,5.153l5.044,1.914c10.872,4.125,18.176,14.707,18.176,26.333
			c0,10.951-6.163,20.683-15.872,25.36c-0.806-0.276-1.622-0.508-2.447-0.706c-0.603-36.492-22.055-67.997-52.956-83.072
			c5.244-7.169,13.671-11.579,22.757-11.579C401.618,35.236,414.257,47.874,414.257,63.407z M293.373,11.487
			c9.808,0,18.762,4.988,23.954,13.342l4.883,7.858l4.875-7.864c5.178-8.351,14.132-13.336,23.951-13.336
			c10.173,0,19.259,5.344,24.234,13.787c-9.375,2.669-17.542,8.733-22.788,17.088c-9.51-3.241-19.688-5.025-30.281-5.025
			c-10.594,0-20.772,1.785-30.283,5.027c-5.238-8.357-13.402-14.42-22.78-17.089C274.112,16.831,283.198,11.487,293.373,11.487z
			 M209.792,105.233c0-11.623,7.31-22.205,18.191-26.333l5.066-1.921l-1.623-5.169c-0.844-2.689-1.272-5.515-1.272-8.403
			c0-15.533,12.637-28.171,28.171-28.171c9.09,0,17.516,4.411,22.75,11.58c-30.897,15.075-52.347,46.575-52.954,83.062
			c-0.833,0.2-1.654,0.432-2.461,0.709C215.95,125.892,209.792,116.163,209.792,105.233z M218.664,156.723
			c0-6.312,3.815-12.077,9.594-14.699c0.039-0.019-1.215-0.03,0.221-0.049v29.505C222.735,168.999,218.664,163.343,218.664,156.723z
			 M221.299,324.071v45.679l-20.87,21.024l-35.651-34.351l60.616-60.732C222.768,304.787,221.299,314.31,221.299,324.071z
			 M221.299,385.996v12.124c-2.872-0.646-5.817-0.978-8.891-0.978c-0.722,0-1.519,0.019-2.233,0.055L221.299,385.996z
			 M117.361,357.123l9.857-9.866l15.28,15.28l-6.967,6.967c-0.979,0.979-1.884,2.004-2.727,3.063L117.361,357.123z M143.654,412.664
			c-9.66-9.66-9.66-25.379,0-35.038l13.079-13.079l35.727,34.351l-13.767,13.767c-4.679,4.679-10.901,7.255-17.519,7.255
			S148.333,417.345,143.654,412.664z M212.408,470.054c-16.934,0-30.635-13.778-30.635-30.713c0-16.936,13.662-30.713,30.596-30.713
			c3.103,0,6.058,0.462,8.93,1.363v58.699C218.427,469.591,215.511,470.054,212.408,470.054z M232.786,324.071
			c0-19.536,6.224-37.995,17.714-53.388c3.91-5.252,8.348-9.976,13.072-14.113l8.764,65.907l43.729-36.881v227.329h-83.279
			L232.786,324.071L232.786,324.071z M316.065,524.413v54.515c-7.179-6.872-16.593-11.092-27.168-11.092
			c-10.688,0-20.215,4.306-27.395,11.307v-54.73H316.065z M315.785,600.513h-53.157c2.722-11.487,13.596-21.508,26.579-21.508
			C302.189,579.004,313.062,589.026,315.785,600.513z M328.618,600.513c2.722-11.487,13.596-21.508,26.579-21.508
			s23.857,10.021,26.579,21.508H328.618z M382.114,578.984c-7.179-6.905-16.623-11.148-27.227-11.148
			c-10.658,0-20.156,4.283-27.336,11.251v-54.674h54.562V578.984z M410.831,512.927h-83.279V285.24l44.437,37.23l8.975-65.653
			c5.331,4.705,10.486,11.241,10.486,11.241c12.756,15.837,19.383,35.207,19.383,56.014v188.854H410.831z M418.214,294.61
			l63.285,63.207l-35.843,34.35l-23.338-23.222v-44.875C422.317,313.884,421.022,304.002,418.214,294.61z M501.385,412.664
			c-4.679,4.679-10.901,7.257-17.52,7.257c-6.618,0-12.839-2.576-17.519-7.257l-12.373-12.373l35.727-34.35l11.685,11.685
			C511.046,387.287,511.046,403.005,501.385,412.664z"/>
		<circle cx="284.325" cy="167.648" r="13.567"/>
		<circle cx="360.076" cy="167.648" r="13.567"/>
		<rect x="346.217" y="344.932" width="43.075" height="11.487"/>
	</g>
</g>
<g>
</g>
<g>
</g>
<g>
</g>
<g>
</g>
<g>
</g>
<g>
</g>
<g>
</g>
<g>
</g>
<g>
</g>
<g>
</g>
<g>
</g>
<g>
</g>
<g>
</g>
<g>
</g>
<g>
</g>
</svg>
